<svg xmlns="http://www.w3.org/2000/svg" viewBox="110 55 400 295">
<rect x="110" y="55" width="400" height="295" fill="#122535"/>
<line x1="299" y1="253" x2="292" y2="235" stroke="#ff9c80" stroke-width="2" stroke-dasharray="4 3"/>
<line x1="292" y1="235" x2="319" y2="228" stroke="#ff9c80" stroke-width="2" stroke-dasharray="4 3"/>
<line x1="299" y1="253" x2="310" y2="279" stroke="#ff9c80" stroke-width="2" stroke-dasharray="4 3"/>
<line x1="310" y1="279" x2="296" y2="291" stroke="#ff9c80" stroke-width="2" stroke-dasharray="4 3"/>
<line x1="296" y1="291" x2="290" y2="300" stroke="#ff9c80" stroke-width="2" stroke-dasharray="4 3"/>
<line x1="290" y1="300" x2="283" y2="303" stroke="#ff9c80" stroke-width="2" stroke-dasharray="4 3"/>
<line x1="316" y1="255" x2="334" y2="239" stroke="#52ecfa" stroke-width="2" stroke-dasharray="4 3"/>
<line x1="334" y1="239" x2="326" y2="224" stroke="#52ecfa" stroke-width="2" />
<line x1="316" y1="255" x2="320" y2="281" stroke="#52ecfa" stroke-width="2" stroke-dasharray="4 3"/>
<line x1="320" y1="281" x2="327" y2="292" stroke="#52ecfa" stroke-width="2" stroke-dasharray="4 3"/>
<line x1="327" y1="292" x2="331" y2="308" stroke="#52ecfa" stroke-width="2" />
<line x1="331" y1="308" x2="339" y2="311" stroke="#52ecfa" stroke-width="2" />
<line x1="347" y1="199" x2="486" y2="189" stroke="#ffd469" stroke-width="3"/>
<polyline points="347,199 326,224 319,228 312.05405486300435,231.96911150685466" fill="none" stroke="#b7c9d8" stroke-width="2"/>
<line x1="306" y1="250" x2="315.0" y2="280.0" stroke="#f0f3f6" stroke-width="2"/>
<line x1="306" y1="250" x2="304" y2="234" stroke="#f0f3f6" stroke-width="1.5" stroke-dasharray="4 3"/>
<line x1="306" y1="250" x2="316" y2="255" stroke="#f0f3f6" stroke-width="1.5" stroke-dasharray="4 3"/>
<line x1="306" y1="250" x2="299" y2="253" stroke="#f0f3f6" stroke-width="1.5" stroke-dasharray="4 3"/>
<line x1="320" y1="281" x2="310" y2="279" stroke="#f0f3f6" stroke-width="1.5" stroke-dasharray="4 3"/>
<circle cx="304" cy="234" r="9" fill="none" stroke="#f0f3f6" stroke-width="2"/>
<circle cx="306" cy="250" r="2" fill="#52ecfa"/>
<circle cx="316" cy="255" r="2" fill="#52ecfa"/>
<circle cx="334" cy="239" r="2" fill="#52ecfa"/>
<circle cx="326" cy="224" r="2" fill="#52ecfa"/>
<circle cx="320" cy="281" r="2" fill="#52ecfa"/>
<circle cx="327" cy="292" r="2" fill="#52ecfa"/>
<circle cx="331" cy="308" r="2" fill="#52ecfa"/>
<circle cx="339" cy="311" r="2" fill="#52ecfa"/>
<circle cx="299" cy="253" r="2" fill="#ff9c80"/>
<circle cx="292" cy="235" r="2" fill="#ff9c80"/>
<circle cx="319" cy="228" r="2" fill="#ff9c80"/>
<circle cx="310" cy="279" r="2" fill="#ff9c80"/>
<circle cx="296" cy="291" r="2" fill="#ff9c80"/>
<circle cx="290" cy="300" r="2" fill="#ff9c80"/>
<circle cx="283" cy="303" r="2" fill="#ff9c80"/>
<circle cx="347" cy="199" r="2" fill="#52ecfa"/>
</svg>