<svg xmlns="http://www.w3.org/2000/svg" viewBox="110 55 400 295">
<rect x="110" y="55" width="400" height="295" fill="#122535"/>
<line x1="310" y1="273" x2="298" y2="271" stroke="#ff9c80" stroke-width="2" stroke-dasharray="4 3"/>
<line x1="298" y1="271" x2="286" y2="254" stroke="#ff9c80" stroke-width="2" stroke-dasharray="4 3"/>
<line x1="310" y1="273" x2="317" y2="290" stroke="#ff9c80" stroke-width="2" stroke-dasharray="4 3"/>
<line x1="317" y1="290" x2="291" y2="295" stroke="#ff9c80" stroke-width="2" stroke-dasharray="4 3"/>
<line x1="291" y1="295" x2="295" y2="311" stroke="#ff9c80" stroke-width="2" stroke-dasharray="4 3"/>
<line x1="295" y1="311" x2="288" y2="315" stroke="#ff9c80" stroke-width="2" stroke-dasharray="4 3"/>
<line x1="336" y1="273" x2="320" y2="282" stroke="#52ecfa" stroke-width="2" stroke-dasharray="4 3"/>
<line x1="320" y1="282" x2="294" y2="260" stroke="#52ecfa" stroke-width="2" />
<line x1="336" y1="273" x2="331" y2="291" stroke="#52ecfa" stroke-width="2" stroke-dasharray="4 3"/>
<line x1="331" y1="291" x2="339" y2="306" stroke="#52ecfa" stroke-width="2" stroke-dasharray="4 3"/>
<line x1="339" y1="306" x2="343" y2="320" stroke="#52ecfa" stroke-width="2" />
<line x1="343" y1="320" x2="351" y2="324" stroke="#52ecfa" stroke-width="2" />
<line x1="261" y1="233" x2="169" y2="144" stroke="#ffd469" stroke-width="3"/>
<polyline points="261,233 286,254 294,260 300.4,264.8" fill="none" stroke="#b7c9d8" stroke-width="2"/>
<line x1="325" y1="267" x2="324.0" y2="290.5" stroke="#f0f3f6" stroke-width="2"/>
<line x1="325" y1="267" x2="325" y2="249" stroke="#f0f3f6" stroke-width="1.5" stroke-dasharray="4 3"/>
<line x1="325" y1="267" x2="336" y2="273" stroke="#f0f3f6" stroke-width="1.5" stroke-dasharray="4 3"/>
<line x1="325" y1="267" x2="310" y2="273" stroke="#f0f3f6" stroke-width="1.5" stroke-dasharray="4 3"/>
<line x1="331" y1="291" x2="317" y2="290" stroke="#f0f3f6" stroke-width="1.5" stroke-dasharray="4 3"/>
<circle cx="325" cy="249" r="9" fill="none" stroke="#f0f3f6" stroke-width="2"/>
<circle cx="325" cy="267" r="2" fill="#52ecfa"/>
<circle cx="336" cy="273" r="2" fill="#52ecfa"/>
<circle cx="320" cy="282" r="2" fill="#52ecfa"/>
<circle cx="294" cy="260" r="2" fill="#52ecfa"/>
<circle cx="331" cy="291" r="2" fill="#52ecfa"/>
<circle cx="339" cy="306" r="2" fill="#52ecfa"/>
<circle cx="343" cy="320" r="2" fill="#52ecfa"/>
<circle cx="351" cy="324" r="2" fill="#52ecfa"/>
<circle cx="310" cy="273" r="2" fill="#ff9c80"/>
<circle cx="298" cy="271" r="2" fill="#ff9c80"/>
<circle cx="286" cy="254" r="2" fill="#ff9c80"/>
<circle cx="317" cy="290" r="2" fill="#ff9c80"/>
<circle cx="291" cy="295" r="2" fill="#ff9c80"/>
<circle cx="295" cy="311" r="2" fill="#ff9c80"/>
<circle cx="288" cy="315" r="2" fill="#ff9c80"/>
<circle cx="261" cy="233" r="2" fill="#52ecfa"/>
</svg>